<?xml version="1.0" ?><!DOCTYPE svg  PUBLIC '-//W3C//DTD SVG 1.0//EN'  'http://www.w3.org/TR/2001/REC-SVG-20010904/DTD/svg10.dtd'><svg enable-background="new 0 0 64 64" height="64px" id="Layer_1" version="1.0" viewBox="0 0 64 64" width="64px" xml:space="preserve" xmlns="http://www.w3.org/2000/svg" xmlns:xlink="http://www.w3.org/1999/xlink"><g><path d="M64,1c0-0.553-0.447-1-1-1H1C0.447,0,0,0.447,0,1v31h64V1z" fill="#679DD3"/><path d="M64,63V32H0v31c0,0.553,0.447,1,1,1h62C63.553,64,64,63.553,64,63z" fill="#568AC2"/></g><path d="M46.258,16H53V6h-6.742c-10.443,0-15.199,8.502-15.199,16.4v3.643l-9-0.01v9.916h9V64h9.858V35.949H53  v-9.906H40.917V22.4C40.917,20.476,41.565,16,46.258,16z" fill="#F5F5F5"/><g><polygon fill="#E1E1E1" points="22.059,32 22.059,35.949 31.059,35.949 31.059,64 40.917,64 40.917,35.949 53,35.949 53,32  "/></g></svg>