<?xml version="1.0" ?><!DOCTYPE svg  PUBLIC '-//W3C//DTD SVG 1.0//EN'  'http://www.w3.org/TR/2001/REC-SVG-20010904/DTD/svg10.dtd'><svg enable-background="new 0 0 64 64" height="64px" id="Layer_1" version="1.0" viewBox="0 0 64 64" width="64px" xml:space="preserve" xmlns="http://www.w3.org/2000/svg" xmlns:xlink="http://www.w3.org/1999/xlink"><g><g><path d="M64,1c0-0.553-0.447-1-1-1H1C0.447,0,0,0.447,0,1v31h64V1z" fill="#08A9D9"/><path d="M64,63V32H0v31c0,0.553,0.447,1,1,1h62C63.553,64,64,63.553,64,63z" fill="#089BCD"/></g></g><g><rect fill="#F5F5F5" height="21" width="6" x="17" y="25"/><circle cx="20" cy="20" fill="#F5F5F5" r="3"/><rect fill="#F5F5F5" height="21" width="6" x="29" y="25"/><path d="M34,29c0,0,4-4,9-4c6.875,0,7,4,7,7c0,0.328,0,13.661,0,14h-7c0,0,0-5,0-11s-9-5-9,0V29z" fill="#F5F5F5"/></g><g><rect fill="#E1E1E1" height="14" width="6" x="17" y="32"/><path d="M43,35c0,6,0,11,0,11h7c0-0.339,0-13.672,0-14h-8.161C42.539,32.674,43,33.654,43,35z" fill="#E1E1E1"/><path d="M29,46h6V32.458c0.15-0.165,0.316-0.317,0.492-0.458H29V46z" fill="#E1E1E1"/></g></svg>